<svg class="svg-icon" style="width: 1em;height: 1em;vertical-align: middle;fill: currentColor;overflow: hidden;" viewBox="0 0 1024 1024" version="1.1" xmlns="http://www.w3.org/2000/svg"><path d="M853.32992 102.4H170.67008C133.13024 102.4 102.4 133.13024 102.4 170.67008v682.67008C102.4 890.85952 133.13024 921.6 170.67008 921.6h682.65984C890.86976 921.6 921.6 890.85952 921.6 853.34016V170.67008C921.6 133.13024 890.86976 102.4 853.32992 102.4z m0 750.94016H170.67008V170.67008h682.65984v682.67008z"  /><path d="M307.2 443.72992h68.27008V716.8H307.2z"  /><path d="M341.32992 358.4m-51.2 0a51.2 51.2 0 1 0 102.4 0 51.2 51.2 0 1 0-102.4 0Z"  /><path d="M580.27008 443.72992c-24.99584 0-48.13824 7.2192-68.27008 18.93376V446.5664h-68.27008V716.8H512V580.25984a68.25984 68.25984 0 0 1 136.52992 0V716.8H716.8V580.25984c0-75.39712-61.1328-136.52992-136.52992-136.52992z"  /></svg>